<svg xmlns="http://www.w3.org/2000/svg" xmlns:xlink="http://www.w3.org/1999/xlink" width="500" zoomAndPan="magnify" viewBox="0 0 375 374.999991" height="500" preserveAspectRatio="xMidYMid meet" version="1.0"><defs><g/></defs><path fill="#ffffff" d="M 229.699219 203.425781 C 222.125 192.65625 203.742188 193.644531 188.265625 194.480469 C 184.144531 194.703125 180.242188 194.910156 176.992188 194.871094 C 173.230469 194.824219 170.34375 193.902344 168.234375 192.398438 C 165.941406 190.765625 164.519531 188.382812 163.851562 185.667969 C 163.140625 182.773438 163.265625 179.503906 164.105469 176.304688 C 165.265625 171.894531 167.761719 167.683594 171.28125 164.820312 C 179.542969 158.097656 234.527344 116.910156 250.722656 104.792969 C 250.585938 108.433594 250.023438 112.910156 248.195312 114.921875 C 245.8125 117.539062 216.390625 140.335938 195.296875 156.675781 C 188.332031 162.074219 182.292969 166.753906 178.105469 170.03125 C 174.480469 172.871094 172.390625 175.332031 171.453125 177.453125 C 170.410156 179.808594 170.605469 181.839844 171.695312 183.578125 C 172.625 185.074219 174.1875 186.164062 176.128906 186.945312 C 179.6875 188.367188 184.851562 188.816406 189.230469 188.789062 C 197.882812 188.734375 209.027344 188.960938 216.378906 189.113281 L 220.390625 189.195312 C 222.144531 189.226562 223.609375 189.570312 224.816406 190.160156 C 226.570312 191.015625 227.828125 192.441406 228.648438 194.199219 C 229.546875 196.132812 229.941406 198.457031 229.894531 200.902344 C 229.878906 201.738281 229.8125 202.582031 229.699219 203.425781 Z M 188.558594 200.160156 C 204.878906 199.277344 224.886719 198.199219 227.230469 212.417969 L 227.234375 212.417969 C 227.378906 213.292969 227.933594 214.089844 228.792969 214.511719 C 230.207031 215.199219 231.910156 214.617188 232.601562 213.207031 C 234.449219 209.441406 235.511719 205.117188 235.589844 200.992188 C 235.652344 197.714844 235.09375 194.535156 233.828125 191.816406 C 232.476562 188.917969 230.34375 186.535156 227.316406 185.058594 C 225.382812 184.117188 223.113281 183.5625 220.480469 183.515625 L 216.488281 183.433594 C 209.128906 183.28125 197.960938 183.050781 189.207031 183.109375 C 185.417969 183.132812 181.042969 182.785156 178.25 181.664062 C 177.394531 181.320312 176.777344 180.957031 176.539062 180.574219 C 176.457031 180.4375 176.488281 180.175781 176.675781 179.746094 C 177.253906 178.445312 178.792969 176.730469 181.632812 174.507812 C 185.214844 171.707031 191.527344 166.816406 198.804688 161.175781 C 220.046875 144.714844 249.683594 121.757812 252.414062 118.75 C 257.40625 113.265625 256.355469 99.011719 256.351562 98.972656 L 256.34375 98.972656 C 256.308594 98.441406 256.125 97.914062 255.78125 97.457031 C 254.839844 96.203125 253.054688 95.949219 251.796875 96.890625 C 251.582031 97.050781 177.386719 152.515625 167.683594 160.410156 C 163.203125 164.058594 160.039062 169.359375 158.589844 174.878906 C 157.519531 178.957031 157.375 183.1875 158.3125 187.003906 C 159.296875 191 161.441406 194.542969 164.925781 197.03125 C 167.9375 199.175781 171.902344 200.488281 176.925781 200.550781 C 180.464844 200.59375 184.402344 200.382812 188.558594 200.160156 Z M 188.558594 200.160156 " fill-opacity="1" fill-rule="nonzero"/><path fill="#ffffff" d="M 251.488281 116.289062 C 250.574219 115.007812 248.792969 114.710938 247.511719 115.621094 C 246.230469 116.53125 245.929688 118.304688 246.84375 119.585938 C 246.859375 119.609375 252.59375 127.535156 248.164062 131.523438 C 241.839844 137.207031 184.085938 183.511719 183.917969 183.644531 C 182.691406 184.628906 182.496094 186.417969 183.484375 187.644531 C 184.46875 188.867188 186.265625 189.0625 187.492188 188.078125 C 187.660156 187.945312 245.625 141.46875 251.980469 135.753906 C 260.226562 128.339844 251.511719 116.324219 251.488281 116.289062 Z M 251.488281 116.289062 " fill-opacity="1" fill-rule="nonzero"/><path fill="#ffffff" d="M 250.648438 132.800781 C 249.507812 131.71875 247.703125 131.765625 246.617188 132.902344 C 245.53125 134.039062 245.574219 135.839844 246.71875 136.921875 C 246.738281 136.941406 254.164062 143.902344 247.71875 150.003906 C 239.144531 158.128906 206.527344 183.8125 206.433594 183.886719 C 205.199219 184.855469 204.988281 186.640625 205.964844 187.871094 C 206.9375 189.101562 208.726562 189.3125 209.960938 188.339844 C 210.054688 188.265625 242.960938 162.355469 251.652344 154.125 C 262.472656 143.875 250.679688 132.835938 250.648438 132.800781 Z M 250.648438 132.800781 " fill-opacity="1" fill-rule="nonzero"/><path fill="#ffffff" d="M 251.613281 151.496094 C 250.953125 150.070312 249.257812 149.445312 247.828125 150.105469 C 246.398438 150.761719 245.773438 152.453125 246.433594 153.878906 C 246.445312 153.90625 250.539062 162.644531 246.808594 166.164062 C 241.660156 171.019531 223.5 184.9375 223.449219 184.976562 C 222.203125 185.9375 221.972656 187.722656 222.933594 188.964844 C 223.898438 190.207031 225.6875 190.4375 226.929688 189.476562 C 226.984375 189.4375 245.390625 175.328125 250.71875 170.304688 C 257.460938 163.945312 251.628906 151.53125 251.613281 151.496094 Z M 251.613281 151.496094 " fill-opacity="1" fill-rule="nonzero"/><path fill="#ffffff" d="M 158.386719 186.195312 C 159.277344 187.496094 161.050781 187.828125 162.351562 186.945312 C 163.652344 186.058594 163.988281 184.289062 163.101562 182.988281 C 163.050781 182.917969 146.410156 158.265625 121.09375 165.902344 C 121.199219 163.160156 122.265625 159.625 126.957031 159.144531 C 128.859375 158.945312 131.347656 158.949219 134.171875 158.949219 C 147.96875 158.953125 169.15625 158.960938 178.371094 138.664062 C 179.019531 137.230469 178.378906 135.542969 176.941406 134.898438 C 176.292969 134.605469 175.589844 134.578125 174.953125 134.765625 C 170.417969 136.121094 164.84375 137.445312 159.144531 138.796875 C 143.34375 142.542969 126.652344 146.503906 124.117188 153.867188 C 112.519531 156.660156 115.808594 170.386719 115.816406 170.429688 C 115.851562 170.582031 115.898438 170.734375 115.960938 170.886719 C 116.558594 172.335938 118.222656 173.03125 119.679688 172.433594 C 142.695312 162.949219 158.34375 186.128906 158.386719 186.195312 Z M 134.171875 153.269531 C 133.191406 153.269531 132.246094 153.269531 131.347656 153.277344 C 135.992188 150.148438 148.523438 147.175781 160.460938 144.34375 C 163.59375 143.597656 166.6875 142.863281 169.628906 142.121094 C 160.644531 153.277344 144.90625 153.273438 134.171875 153.269531 Z M 134.171875 153.269531 " fill-opacity="1" fill-rule="nonzero"/><path fill="#ffffff" d="M 168.015625 145.125 C 166.445312 145.0625 165.121094 146.285156 165.058594 147.851562 C 164.996094 149.421875 166.222656 150.742188 167.792969 150.804688 C 169.257812 150.867188 171.347656 151.605469 173.332031 152.539062 C 175.789062 153.695312 177.859375 154.980469 178.28125 155.578125 C 179.1875 156.863281 180.96875 157.171875 182.253906 156.265625 C 183.542969 155.363281 183.855469 153.589844 182.949219 152.300781 C 182.039062 151.015625 179.023438 148.925781 175.765625 147.394531 C 173.199219 146.1875 170.332031 145.222656 168.015625 145.125 Z M 168.015625 145.125 " fill-opacity="1" fill-rule="nonzero"/><path fill="#ffffff" d="M 115.75 169.683594 C 115.683594 171.25 116.902344 172.578125 118.472656 172.644531 C 120.046875 172.714844 121.375 171.496094 121.445312 169.929688 C 121.445312 169.910156 121.601562 163.46875 133.066406 164.367188 C 135.203125 164.535156 136.757812 164.6875 138.296875 164.839844 C 151.054688 166.085938 163.050781 167.257812 182.03125 156.410156 C 183.402344 155.632812 183.875 153.890625 183.09375 152.523438 C 182.308594 151.160156 180.566406 150.6875 179.195312 151.46875 C 161.773438 161.421875 150.65625 160.335938 138.832031 159.179688 C 136.898438 158.992188 134.945312 158.800781 133.511719 158.6875 C 116.105469 157.320312 115.75 169.648438 115.75 169.683594 Z M 115.75 169.683594 " fill-opacity="1" fill-rule="nonzero"/><g fill="#ffffff" fill-opacity="1"><g transform="translate(71.730345, 252.930922)"><g><path d="M 20.40625 -16.6875 C 20.40625 -13.957031 19.597656 -11.847656 17.984375 -10.359375 C 16.367188 -8.867188 14.078125 -8.125 11.109375 -8.125 L 9.25 -8.125 L 9.25 0 L 2.640625 0 L 2.640625 -24.46875 L 11.109375 -24.46875 C 14.203125 -24.46875 16.523438 -23.789062 18.078125 -22.4375 C 19.628906 -21.09375 20.40625 -19.175781 20.40625 -16.6875 Z M 9.25 -13.515625 L 10.46875 -13.515625 C 11.457031 -13.515625 12.242188 -13.789062 12.828125 -14.34375 C 13.410156 -14.90625 13.703125 -15.675781 13.703125 -16.65625 C 13.703125 -18.300781 12.789062 -19.125 10.96875 -19.125 L 9.25 -19.125 Z M 9.25 -13.515625 "/></g></g></g><g fill="#ffffff" fill-opacity="1"><g transform="translate(98.53105, 252.930922)"><g><path d="M 17.171875 0 L 2.640625 0 L 2.640625 -24.46875 L 17.171875 -24.46875 L 17.171875 -19.171875 L 9.25 -19.171875 L 9.25 -15.3125 L 16.59375 -15.3125 L 16.59375 -10.015625 L 9.25 -10.015625 L 9.25 -5.390625 L 17.171875 -5.390625 Z M 17.171875 0 "/></g></g></g><g fill="#ffffff" fill-opacity="1"><g transform="translate(122.486468, 252.930922)"><g><path d="M 9.25 -8.90625 L 9.25 0 L 2.640625 0 L 2.640625 -24.46875 L 10.65625 -24.46875 C 17.3125 -24.46875 20.640625 -22.054688 20.640625 -17.234375 C 20.640625 -14.398438 19.253906 -12.207031 16.484375 -10.65625 L 23.625 0 L 16.125 0 L 10.9375 -8.90625 Z M 9.25 -13.875 L 10.5 -13.875 C 12.800781 -13.875 13.953125 -14.894531 13.953125 -16.9375 C 13.953125 -18.625 12.820312 -19.46875 10.5625 -19.46875 L 9.25 -19.46875 Z M 9.25 -13.875 "/></g></g></g><g fill="#ffffff" fill-opacity="1"><g transform="translate(150.826976, 252.930922)"><g><path d="M 17.171875 0 L 2.640625 0 L 2.640625 -24.46875 L 17.171875 -24.46875 L 17.171875 -19.171875 L 9.25 -19.171875 L 9.25 -15.3125 L 16.59375 -15.3125 L 16.59375 -10.015625 L 9.25 -10.015625 L 9.25 -5.390625 L 17.171875 -5.390625 Z M 17.171875 0 "/></g></g></g><g fill="#ffffff" fill-opacity="1"><g transform="translate(174.782393, 252.930922)"><g><path d="M 12.46875 -14.328125 L 23.03125 -14.328125 L 23.03125 -1.140625 C 20.164062 -0.160156 17.015625 0.328125 13.578125 0.328125 C 9.804688 0.328125 6.890625 -0.765625 4.828125 -2.953125 C 2.765625 -5.140625 1.734375 -8.253906 1.734375 -12.296875 C 1.734375 -16.253906 2.859375 -19.332031 5.109375 -21.53125 C 7.367188 -23.726562 10.53125 -24.828125 14.59375 -24.828125 C 16.132812 -24.828125 17.585938 -24.679688 18.953125 -24.390625 C 20.316406 -24.097656 21.507812 -23.726562 22.53125 -23.28125 L 20.4375 -18.09375 C 18.675781 -18.96875 16.738281 -19.40625 14.625 -19.40625 C 12.695312 -19.40625 11.207031 -18.773438 10.15625 -17.515625 C 9.101562 -16.265625 8.578125 -14.472656 8.578125 -12.140625 C 8.578125 -9.847656 9.050781 -8.101562 10 -6.90625 C 10.957031 -5.707031 12.332031 -5.109375 14.125 -5.109375 C 15.101562 -5.109375 16.007812 -5.203125 16.84375 -5.390625 L 16.84375 -9.21875 L 12.46875 -9.21875 Z M 12.46875 -14.328125 "/></g></g></g><g fill="#ffffff" fill-opacity="1"><g transform="translate(205.298703, 252.930922)"><g><path d="M 9.25 -8.90625 L 9.25 0 L 2.640625 0 L 2.640625 -24.46875 L 10.65625 -24.46875 C 17.3125 -24.46875 20.640625 -22.054688 20.640625 -17.234375 C 20.640625 -14.398438 19.253906 -12.207031 16.484375 -10.65625 L 23.625 0 L 16.125 0 L 10.9375 -8.90625 Z M 9.25 -13.875 L 10.5 -13.875 C 12.800781 -13.875 13.953125 -14.894531 13.953125 -16.9375 C 13.953125 -18.625 12.820312 -19.46875 10.5625 -19.46875 L 9.25 -19.46875 Z M 9.25 -13.875 "/></g></g></g><g fill="#ffffff" fill-opacity="1"><g transform="translate(233.639217, 252.930922)"><g><path d="M 2.640625 0 L 2.640625 -24.46875 L 9.296875 -24.46875 L 9.296875 0 Z M 2.640625 0 "/></g></g></g><g fill="#ffffff" fill-opacity="1"><g transform="translate(250.715746, 252.930922)"><g><path d="M 25.9375 0 L 17.28125 0 L 8.34375 -17.234375 L 8.1875 -17.234375 C 8.394531 -14.523438 8.5 -12.457031 8.5 -11.03125 L 8.5 0 L 2.640625 0 L 2.640625 -24.46875 L 11.28125 -24.46875 L 20.1875 -7.46875 L 20.28125 -7.46875 C 20.125 -9.9375 20.046875 -11.914062 20.046875 -13.40625 L 20.046875 -24.46875 L 25.9375 -24.46875 Z M 25.9375 0 "/></g></g></g><g fill="#ffffff" fill-opacity="1"><g transform="translate(284.445556, 252.930922)"><g><path d="M 17.171875 0 L 2.640625 0 L 2.640625 -24.46875 L 17.171875 -24.46875 L 17.171875 -19.171875 L 9.25 -19.171875 L 9.25 -15.3125 L 16.59375 -15.3125 L 16.59375 -10.015625 L 9.25 -10.015625 L 9.25 -5.390625 L 17.171875 -5.390625 Z M 17.171875 0 "/></g></g></g><g fill="#ffffff" fill-opacity="1"><g transform="translate(147.163983, 275.534454)"><g><path d="M 4.171875 -6.53125 L 5.03125 -6.53125 C 5.832031 -6.53125 6.429688 -6.6875 6.828125 -7 C 7.222656 -7.320312 7.421875 -7.785156 7.421875 -8.390625 C 7.421875 -9.003906 7.253906 -9.457031 6.921875 -9.75 C 6.585938 -10.039062 6.066406 -10.1875 5.359375 -10.1875 L 4.171875 -10.1875 Z M 10.0625 -8.484375 C 10.0625 -7.148438 9.644531 -6.132812 8.8125 -5.4375 C 7.988281 -4.738281 6.8125 -4.390625 5.28125 -4.390625 L 4.171875 -4.390625 L 4.171875 0 L 1.546875 0 L 1.546875 -12.328125 L 5.484375 -12.328125 C 6.984375 -12.328125 8.117188 -12.003906 8.890625 -11.359375 C 9.671875 -10.710938 10.0625 -9.753906 10.0625 -8.484375 Z M 10.0625 -8.484375 "/></g></g></g><g fill="#ffffff" fill-opacity="1"><g transform="translate(162.735916, 275.534454)"><g><path d="M 1.546875 0 L 1.546875 -12.328125 L 4.171875 -12.328125 L 4.171875 0 Z M 1.546875 0 "/></g></g></g><g fill="#ffffff" fill-opacity="1"><g transform="translate(173.183277, 275.534454)"><g><path d="M 11.515625 0 L 8.53125 0 L 5.671875 -4.65625 L 2.796875 0 L 0 0 L 4.09375 -6.359375 L 0.265625 -12.328125 L 3.140625 -12.328125 L 5.796875 -7.890625 L 8.40625 -12.328125 L 11.21875 -12.328125 L 7.34375 -6.21875 Z M 11.515625 0 "/></g></g></g><g fill="#ffffff" fill-opacity="1"><g transform="translate(189.429495, 275.534454)"><g><path d="M 8.65625 0 L 1.546875 0 L 1.546875 -12.328125 L 8.65625 -12.328125 L 8.65625 -10.1875 L 4.171875 -10.1875 L 4.171875 -7.484375 L 8.34375 -7.484375 L 8.34375 -5.34375 L 4.171875 -5.34375 L 4.171875 -2.15625 L 8.65625 -2.15625 Z M 8.65625 0 "/></g></g></g><g fill="#ffffff" fill-opacity="1"><g transform="translate(203.829863, 275.534454)"><g><path d="M 1.546875 0 L 1.546875 -12.328125 L 4.171875 -12.328125 L 4.171875 -2.15625 L 9.15625 -2.15625 L 9.15625 0 Z M 1.546875 0 "/></g></g></g><g fill="#ffffff" fill-opacity="1"><g transform="translate(218.314518, 275.534454)"><g><path d="M 8.828125 -3.421875 C 8.828125 -2.304688 8.425781 -1.425781 7.625 -0.78125 C 6.820312 -0.144531 5.707031 0.171875 4.28125 0.171875 C 2.96875 0.171875 1.804688 -0.078125 0.796875 -0.578125 L 0.796875 -3 C 1.628906 -2.625 2.332031 -2.359375 2.90625 -2.203125 C 3.476562 -2.054688 4.003906 -1.984375 4.484375 -1.984375 C 5.054688 -1.984375 5.492188 -2.09375 5.796875 -2.3125 C 6.109375 -2.53125 6.265625 -2.859375 6.265625 -3.296875 C 6.265625 -3.535156 6.195312 -3.75 6.0625 -3.9375 C 5.925781 -4.125 5.726562 -4.304688 5.46875 -4.484375 C 5.207031 -4.660156 4.675781 -4.9375 3.875 -5.3125 C 3.113281 -5.664062 2.546875 -6.003906 2.171875 -6.328125 C 1.796875 -6.660156 1.492188 -7.039062 1.265625 -7.46875 C 1.046875 -7.90625 0.9375 -8.414062 0.9375 -9 C 0.9375 -10.082031 1.304688 -10.9375 2.046875 -11.5625 C 2.785156 -12.1875 3.804688 -12.5 5.109375 -12.5 C 5.742188 -12.5 6.351562 -12.421875 6.9375 -12.265625 C 7.519531 -12.117188 8.128906 -11.910156 8.765625 -11.640625 L 7.921875 -9.609375 C 7.265625 -9.867188 6.71875 -10.050781 6.28125 -10.15625 C 5.851562 -10.269531 5.4375 -10.328125 5.03125 -10.328125 C 4.53125 -10.328125 4.144531 -10.210938 3.875 -9.984375 C 3.613281 -9.753906 3.484375 -9.453125 3.484375 -9.078125 C 3.484375 -8.847656 3.535156 -8.644531 3.640625 -8.46875 C 3.753906 -8.300781 3.925781 -8.132812 4.15625 -7.96875 C 4.394531 -7.8125 4.945312 -7.523438 5.8125 -7.109375 C 6.96875 -6.566406 7.757812 -6.015625 8.1875 -5.453125 C 8.613281 -4.898438 8.828125 -4.222656 8.828125 -3.421875 Z M 8.828125 -3.421875 "/></g></g></g></svg>